<svg xmlns="http://www.w3.org/2000/svg" width="25.505" height="29" viewBox="0 0 25.505 29">
  <defs>
    <style>
      .cls-1 {
        fill: #d58c7d;
        stroke: #d58c7d;
      }
    </style>
  </defs>
  <g id="Component_13_1" data-name="Component 13 – 1" transform="translate(0.5 28.5) rotate(-90)">
    <path id="Path_5" data-name="Path 5" class="cls-1" d="M570.881,322.709a12.528,12.528,0,0,0-12.74,12.057h-2.515v.467h19.819l-4.423,4.252.343.33,4.838-4.651.165-.163-.165-.167-4.839-4.652-.343.33,4.425,4.254H558.626a12.263,12.263,0,1,1,12.255,11.981,12.45,12.45,0,0,1-9.363-4.177l-.371.3a12.943,12.943,0,0,0,9.733,4.342,12.262,12.262,0,1,0,0-24.505Z" transform="translate(-555.626 -322.709)"/>
  </g>
</svg>
