<svg xmlns="http://www.w3.org/2000/svg" width="141.82" height="159.136" viewBox="0 0 141.82 159.136">
  <defs>
    <style>
      .cls-1 {
        fill: #d58c7d;
      }
    </style>
  </defs>
  <g id="Group_48" data-name="Group 48" transform="translate(-1033.847 -337.514)">
    <g id="cover">
      <path id="Path_199" data-name="Path 199" class="cls-1" d="M1154.275,487.171a10.3,10.3,0,0,0-.5-1.134,13.469,13.469,0,0,0-2.65-3.9c-.644-.7-1.361-1.4-2.121-2.087a61.184,61.184,0,0,0-6.65-5.085c-.908-.611-1.756-1.152-2.492-1.61-1.577-.982-2.625-1.569-2.625-1.569a.213.213,0,0,0-.043.013c-.246-.143-.395-.225-.422-.244l-.727-.4a31.879,31.879,0,0,1-6.675,2.972,32.307,32.307,0,0,1-12.188,1.359l3.279,5.26,1.258,2.015,8.154,13.077.237.38.958.131a32.065,32.065,0,0,0,4.327.3c12.174,0,18.064-6.932,19.161-8.352A6.17,6.17,0,0,0,1154.275,487.171Z"/>
      <path id="Path_200" data-name="Path 200" class="cls-1" d="M1082.452,471.155l-.724.4c-.03.019-.179.1-.425.241l-.04-.01s-1.051.587-2.628,1.569c-.736.458-1.581,1-2.492,1.61a61.672,61.672,0,0,0-6.65,5.085c-.756.683-1.474,1.382-2.121,2.087a13.466,13.466,0,0,0-2.65,3.9,10.082,10.082,0,0,0-.5,1.134,6.417,6.417,0,0,0-.283,1.127c1.1,1.42,6.987,8.352,19.161,8.352a32.057,32.057,0,0,0,4.328-.3l.957-.131.237-.38,8.154-13.077,1.258-2.015,3.279-5.26a55.261,55.261,0,0,1-18.863-4.331Z"/>
    </g>
    <path id="Path_201" data-name="Path 201" class="cls-1" d="M1156.648,438.288a31.348,31.348,0,0,1-9.213,16.123,43.252,43.252,0,0,1-3.927,3.4v.014c-.541.4-1.082.819-1.651,1.207-.111.07-.236.125-.361.2a28.561,28.561,0,0,1-10.933,3.025,6.137,6.137,0,0,0-4.024,2.192l-.153.208a6.577,6.577,0,0,1-.485.6,8.03,8.03,0,0,1-5.925,2.622,7.933,7.933,0,0,1-3.538-.819c-.028-.014-.069-.028-.1-.041a9.516,9.516,0,0,1-3.788-3.539,6.184,6.184,0,0,0,1.235.916,4.963,4.963,0,0,0,2.372.666,15.4,15.4,0,0,1-1.887-1.373,12.956,12.956,0,0,1-1.54-1.6c-.1-.125-.194-.236-.277-.361a4.257,4.257,0,0,0,1.97-3.538,4.889,4.889,0,0,0-9.726,0,4.209,4.209,0,0,0,1.581,3.247c-.166.222-.333.43-.5.652a13,13,0,0,1-1.554,1.6,14.392,14.392,0,0,1-1.887,1.373,4.919,4.919,0,0,0,2.372-.666,6.337,6.337,0,0,0,1.249-.929,9.565,9.565,0,0,1-3.718,3.51l-.084.042a8.147,8.147,0,0,1-9.559-1.776,6.666,6.666,0,0,1-.486-.583l-.153-.222a6.287,6.287,0,0,0-4.121-2.192,28.375,28.375,0,0,1-10.836-3.011c-.125-.07-.236-.125-.361-.2a44.725,44.725,0,0,1-5.578-4.634c-5.078-4.995-8.255-10.7-9.324-16.678-1.54-.541-3.011-1.082-4.426-1.651.749,7.729,4.454,15.041,10.837,21.3a48.228,48.228,0,0,0,6.2,5.148l.194.125c.194.1.389.208.569.291a32.576,32.576,0,0,0,12.321,3.455,1.86,1.86,0,0,1,1.249.638c.028.042.069.084.1.125.236.319.485.611.735.888a12.164,12.164,0,0,0,13.9,2.97,5.4,5.4,0,0,0,.638-.292,13.636,13.636,0,0,0,5.189-4.62,13.689,13.689,0,0,0,5.2,4.62c.222.111.458.222.68.32a12.364,12.364,0,0,0,4.842,1,12.18,12.18,0,0,0,8.991-3.982,11.634,11.634,0,0,0,.749-.9l.014-.013.083-.125a1.922,1.922,0,0,1,1.152-.625,32.513,32.513,0,0,0,12.4-3.441c.194-.1.389-.208.583-.3l.208-.125c.638-.458,1.277-.929,1.887-1.4a45.478,45.478,0,0,0,4.3-3.747c6.189-6.063,9.866-13.111,10.754-20.59C1159.7,437.289,1158.216,437.8,1156.648,438.288Z"/>
    <g id="Group_45" data-name="Group 45">
      <path id="Path_202" data-name="Path 202" class="cls-1" d="M1147.948,439.689q-3.351.812-7.076,1.5c-2.595,2.317-3.358,4.87-4.634,6.716a5.265,5.265,0,0,1-2.637,2.123l-.25.083a8.961,8.961,0,0,1-2.788.458,6.809,6.809,0,0,1-5.8-2.845,5.078,5.078,0,0,1-.583-1.165,5.748,5.748,0,0,1-.305-1.415,5.507,5.507,0,0,1,.139-1.721h-.084c-.707.056-1.429.111-2.15.167a7.865,7.865,0,0,0,.3,4.592,8.3,8.3,0,0,0,.916,1.735,9.466,9.466,0,0,0,4.981,3.566,11.957,11.957,0,0,0,7.076-.028l.18-.056h.014c.042-.014.084-.041.125-.055a7.745,7.745,0,0,0,3.982-3.039l.195-.264v-.027c.416-.625.777-1.263,1.151-1.957a13.57,13.57,0,0,1,4.621-5.466l3.8-2.526Z"/>
      <path id="Path_203" data-name="Path 203" class="cls-1" d="M1132.1,442.575a4.452,4.452,0,0,1-1.665.541,4.809,4.809,0,0,1-1.86-.125c-1.484.153-3.01.3-4.564.43h-.084c0,.014-.014.028-.014.042a5.142,5.142,0,0,0-.111,1.581c.028.028.042.07.07.1.139.194.277.374.43.555a6.6,6.6,0,0,0,9.31.555,6.532,6.532,0,0,0,2.151-4.2C1134.573,442.242,1133.351,442.408,1132.1,442.575Z"/>
    </g>
    <g id="Group_46" data-name="Group 46">
      <path id="Path_204" data-name="Path 204" class="cls-1" d="M1068.675,440.063l3.8,2.526a13.562,13.562,0,0,1,4.621,5.466c.374.694.735,1.332,1.151,1.957v.027l.195.264a7.745,7.745,0,0,0,3.982,3.039c.041.014.083.041.125.055h.014l.18.056a11.957,11.957,0,0,0,7.076.028,9.466,9.466,0,0,0,4.981-3.566,8.3,8.3,0,0,0,.916-1.735,7.865,7.865,0,0,0,.3-4.592c-.721-.056-1.443-.111-2.15-.167h-.084a5.507,5.507,0,0,1,.139,1.721,5.748,5.748,0,0,1-.305,1.415,5.074,5.074,0,0,1-.583,1.165,6.809,6.809,0,0,1-5.8,2.845,8.961,8.961,0,0,1-2.788-.458l-.25-.083a5.265,5.265,0,0,1-2.637-2.123c-1.276-1.846-2.039-4.4-4.634-6.716q-3.725-.687-7.076-1.5Z"/>
      <path id="Path_205" data-name="Path 205" class="cls-1" d="M1082.036,442.048a6.532,6.532,0,0,0,2.151,4.2,6.6,6.6,0,0,0,9.31-.555c.153-.181.291-.361.43-.555.028-.028.042-.07.07-.1a5.142,5.142,0,0,0-.111-1.581c0-.014-.014-.028-.014-.042h-.084c-1.554-.125-3.08-.277-4.564-.43a4.807,4.807,0,0,1-1.86.125,4.452,4.452,0,0,1-1.665-.541C1084.451,442.408,1083.23,442.242,1082.036,442.048Z"/>
    </g>
    <g id="hat">
      <path id="Path_206" data-name="Path 206" class="cls-1" d="M1098.886,407a75.738,75.738,0,0,0-16.9,3.649h-.014a2.178,2.178,0,0,0-.236.069,30.579,30.579,0,0,0-12.376,6.841c-.555.5-1.082,1.026-1.6,1.567l-.444-.874s-1.693-4.176-3.441-9.615c-3.288-10.2-6.771-24.809.375-24.462,2.983.153,6.951,1.943,11.141,4.5C1085.33,394.666,1096.513,404.808,1098.886,407Z"/>
      <g id="Group_47" data-name="Group 47">
        <path id="Path_207" data-name="Path 207" class="cls-1" d="M1156.051,406.973c-1.9,6.216-3.954,11.28-3.954,11.28l-.444.874c-.514-.541-1.041-1.068-1.6-1.567a30.579,30.579,0,0,0-12.376-6.841,1.7,1.7,0,0,0-.25-.069A75.748,75.748,0,0,0,1120.517,407a195.426,195.426,0,0,1,18.2-14.847c6.008-4.245,12.21-7.77,16.442-7.978C1161.92,383.843,1159.159,396.927,1156.051,406.973Z"/>
        <path id="Path_208" data-name="Path 208" class="cls-1" d="M1174.116,424.747l-15.286-15.04c-1.752,5.47-3.439,9.662-3.514,9.851l-.125.263-2.678,5.259-3.372-3.566c-.458-.472-.915-.93-1.4-1.374a27.274,27.274,0,0,0-10.989-6.077l-.6-.194a72.986,72.986,0,0,0-16.012-3.414l-7.589-.832,5.619-5.175a196.712,196.712,0,0,1,18.551-15.138c.088-.062.168-.113.255-.174l-7.886-13.66L1107.738,338.5a1.936,1.936,0,0,0-3.372,0l-21.353,36.977-5.887,10.2.073.043c10.3,6.2,21.84,16.692,24.046,18.732l5.591,5.175-7.576.832a72.513,72.513,0,0,0-16.025,3.428l-.749.235a27.059,27.059,0,0,0-10.795,6.008c-.5.444-.958.916-1.416,1.388l-3.371,3.566-2.8-5.522c-.069-.181-1.762-4.357-3.524-9.866-.172-.532-.315-1.018-.474-1.529L1036.42,419.53a4.536,4.536,0,0,0-.707,7.756c9.615,7.007,31.8,19.4,68.695,19.869,36.727.472,58.872-8.8,68.571-14.139A5.212,5.212,0,0,0,1174.116,424.747Z"/>
      </g>
    </g>
  </g>
</svg>
