<?xml version="1.0" encoding="utf-8"?>
<!-- Generator: Adobe Illustrator 24.2.0, SVG Export Plug-In . SVG Version: 6.00 Build 0)  -->
<svg version="1.1" id="Group_86" xmlns="http://www.w3.org/2000/svg" xmlns:xlink="http://www.w3.org/1999/xlink" x="0px" y="0px"
	 viewBox="0 0 123 40.6" style="enable-background:new 0 0 123 40.6;" xml:space="preserve">
<style type="text/css">
	.st0{fill:#D58C7D;}
	.st1{fill:#7E89A7;}
	.st2{fill:#898989;}
	.st3{font-family:'AcuminPro-Regular';}
	.st4{font-size:3px;}
</style>
<g id="Group_82">
	<g id="Group_79">
		<path id="Path_218" class="st0" d="M21.7,1.1c-0.1,0-0.2,0-0.3,0v0.2c0.1,0,0.2,0,0.3,0c10.4,0.2,18.7,8.8,18.5,19.2
			C40,30.9,31.4,39.2,21,39C10.7,38.8,2.5,30.4,2.5,20.1c0-5.8,2.7-11.2,7.3-14.7H9.5c-4.5,3.6-7.1,9-7.2,14.7
			c-0.2,10.7,8.3,19.5,19,19.7C32,40,40.8,31.5,41,20.8c0.2-10.7-8.3-19.5-19-19.7C21.9,1.1,21.8,1.1,21.7,1.1L21.7,1.1z"/>
		<g id="Group_76" transform="translate(7.424)">
			<g id="Group_36" transform="translate(3.003 21.823)">
				<path id="Path_97" class="st1" d="M19.2,8.1c-0.1-0.3-0.3-0.5-0.5-0.7c-0.1-0.1-0.2-0.2-0.4-0.4c-0.4-0.3-0.8-0.6-1.2-0.9
					c-0.2-0.1-0.3-0.2-0.4-0.3c-0.3-0.2-0.4-0.3-0.5-0.3l-0.4-0.2l-0.3,0.4L15.8,6l0,0L16,6.1l0,0c0.1,0,0.2,0.1,0.3,0.2
					c0.1,0.1,0.3,0.2,0.4,0.3c0.4,0.3,0.8,0.5,1.1,0.8c0.1,0.1,0.2,0.2,0.4,0.3c0.2,0.2,0.3,0.4,0.4,0.6c0,0.1,0.1,0.1,0.1,0.2l0,0
					c-0.8,0.8-1.9,1.3-3.1,1.2c-0.2,0-0.5,0-0.7,0l0,0l-1.5-2.3L13,7.7l1.6,2.5l0.3,0c0.3,0,0.5,0.1,0.8,0.1
					c1.3,0.1,2.7-0.5,3.5-1.5c0.1-0.1,0.1-0.2,0-0.4C19.2,8.3,19.2,8.2,19.2,8.1z"/>
				<path id="Path_98" class="st1" d="M7.5,9.7L7.5,9.7C7.2,9.8,7,9.8,6.7,9.8c-1.1,0-2.3-0.4-3.1-1.2l0,0c0-0.1,0.1-0.1,0.1-0.2
					C3.9,8.1,4,7.9,4.2,7.7c0.1-0.1,0.2-0.2,0.4-0.3c0.4-0.3,0.7-0.6,1.1-0.8C5.8,6.4,6,6.4,6.1,6.3c0.1-0.1,0.3-0.2,0.3-0.2h0
					l0.5-0.3v0L6.8,5.6L6.6,5.4L6.4,5.5h0l-0.1,0c0,0-0.2,0.1-0.5,0.3C5.7,5.9,5.5,6,5.4,6.1C5,6.4,4.6,6.7,4.2,7
					C4,7.1,3.9,7.3,3.8,7.4C3.6,7.6,3.4,7.8,3.3,8.1c0,0.1-0.1,0.2-0.1,0.2c-0.1,0.2-0.1,0.3,0,0.4c0.9,1,2.2,1.6,3.5,1.5
					c0.3,0,0.5,0,0.8-0.1l0.3,0l1.6-2.5L9,7.4L7.5,9.7z"/>
				<path id="Path_99" class="st1" d="M19.6,0.6l-0.1,0.2c-0.3,0.7-0.8,1.3-1.3,1.8c-0.2,0.2-0.5,0.4-0.7,0.6
					c-0.1,0.1-0.2,0.2-0.3,0.2L17,3.5C16.3,3.8,15.6,4,14.9,4c-0.1,0-0.3,0.1-0.4,0.2l0,0c0,0-0.1,0.1-0.1,0.1C14.1,4.8,13.6,5,13,5
					c-0.3,0-0.5-0.1-0.7-0.1c0,0-0.1,0-0.1,0c-0.3-0.2-0.6-0.4-0.8-0.7l-0.2-0.3L11,4.1c-0.2,0.3-0.5,0.5-0.8,0.7c0,0-0.1,0-0.1,0
					C9.3,5.1,8.5,5,7.9,4.4c0,0-0.1-0.1-0.1-0.1c0,0,0,0,0,0C7.7,4.1,7.6,4,7.4,4C6.7,4,6,3.8,5.4,3.5l0,0l-0.1,0
					c-0.4-0.3-0.7-0.5-1-0.9C3.7,2,3.2,1.4,2.9,0.7L2.8,0.6L2.3,0.8l0.1,0.2c0.4,0.8,0.9,1.4,1.5,2C4.2,3.3,4.6,3.6,5,3.8l0.1,0
					l0.1,0c0.7,0.3,1.5,0.6,2.2,0.6c0,0,0,0,0,0l0,0c0,0.1,0.1,0.1,0.1,0.2C8,5.2,8.6,5.5,9.3,5.5c0.3,0,0.6-0.1,0.9-0.2
					c0,0,0.1,0,0.1-0.1c0.1-0.4,0.6-0.7,1-0.6C11.7,4.8,11.9,5,12,5.2c0,0,0.1,0,0.1,0.1c0.3,0.1,0.6,0.2,0.9,0.2
					c0.7,0,1.3-0.3,1.8-0.8c0-0.1,0.1-0.1,0.1-0.2l0,0c0,0,0,0,0,0c0.8-0.1,1.6-0.3,2.3-0.6l0.2-0.1l0,0c0.1-0.1,0.2-0.2,0.3-0.2
					c0.3-0.2,0.5-0.4,0.8-0.7c0.6-0.6,1.1-1.2,1.4-2L20,0.8L19.6,0.6z"/>
				<path id="Path_100" class="st1" d="M10.3,3.9L10.8,4l0.1-0.7l-0.1-0.1c-0.1-0.1-0.2-0.2-0.2-0.4c0.1-0.3,0.4-0.5,0.7-0.5
					c0.2,0,0.4,0.2,0.5,0.5c0,0.2-0.1,0.3-0.2,0.4l-0.1,0.1l0,0.6l0.5,0l0-0.3c0.2-0.2,0.3-0.4,0.3-0.7c-0.1-0.6-0.6-1.1-1.2-1
					c-0.5,0.1-1,0.5-1,1c0,0.2,0.1,0.5,0.3,0.6L10.3,3.9z"/>
			</g>
			<path id="Path_101" class="st1" d="M18.8,22.7c0,0.3-0.2,0.5-0.3,0.7c-0.3,0.3-0.8,0.3-1.2,0.1c0.1,0,0.3-0.1,0.4-0.1
				c0.1-0.1,0.2-0.2,0.2-0.4c-0.1,0-0.2,0-0.3,0l-0.3,0c-0.1,0-0.3,0-0.4,0h0l0,0c0,0,0,0.1,0,0.1c0,0,0,0,0,0c0,0,0,0,0,0
				c0,0,0,0,0,0c0,0,0,0,0.1,0.1c0.5,0.5,1.2,0.5,1.7,0.1c0.2-0.2,0.4-0.5,0.4-0.8L18.8,22.7z"/>
			<path id="Path_102" class="st1" d="M10.4,22.9c-0.1,0-0.2,0-0.3,0c0,0.1,0.1,0.3,0.2,0.4c0.3,0.2,0.6,0.2,0.9,0c0,0,0,0,0,0l0,0
				c0,0,0-0.1,0-0.1l0,0h0c-0.1,0-0.3,0-0.4,0"/>
			<path id="Path_103" class="st1" d="M10.6,23.8c-0.3,0-0.6-0.1-0.8-0.3c-0.2-0.2-0.4-0.5-0.4-0.8l0.2,0c0,0.3,0.2,0.5,0.3,0.7
				c0.4,0.4,1.1,0.3,1.5-0.1c0,0,0-0.1,0.1-0.1c0,0,0,0,0,0l0.1,0.1c0,0,0,0,0,0c0,0,0,0.1-0.1,0.1C11.3,23.6,10.9,23.8,10.6,23.8z"
				/>
			<g id="Group_37" transform="translate(0 4.088)">
				<path id="Path_104" class="st1" d="M6.6,14.2l0.2,0.5l0.3-0.3c0.1-0.1,0.2-0.2,0.3-0.3C8,13.6,8.7,13.2,9.4,13l0.1,0
					c0.9-0.3,1.9-0.5,2.9-0.6l0.6-0.1L12.5,12c-1.3-1.2-2.7-2.2-4.1-3.2C7.8,8.4,7.1,8.1,6.3,8C6,8,5.8,8.1,5.6,8.3
					c-0.5,0.6-0.3,2,0.4,4.2C6.3,13.5,6.6,14.2,6.6,14.2z M6,8.6c0.1-0.1,0.2-0.1,0.3-0.1h0c0.7,0.1,1.3,0.4,1.8,0.7
					C9.4,10,10.6,11,11.7,12c-0.8,0.1-1.6,0.3-2.4,0.6l0,0c-0.8,0.2-1.6,0.6-2.3,1.2l0,0c-0.1-0.3-0.3-0.8-0.5-1.4
					C5.9,10.4,5.7,9,6,8.6z"/>
				<path id="Path_105" class="st1" d="M16,12l-0.4,0.4l0.6,0.1c1,0.1,1.9,0.3,2.9,0.6l0.1,0c0.8,0.2,1.5,0.6,2,1.1
					c0.1,0.1,0.2,0.2,0.3,0.3l0.3,0.3l0.3-0.5c0,0,0.4-0.9,0.7-2c0.7-2.1,0.8-3.4,0.3-3.9C22.7,8.1,22.4,8,22.2,8
					c-1.1,0.2-2.1,0.7-3,1.4C18,10.2,17,11,16,12z M22.5,8.6c0.3,0.4,0.2,1.7-0.4,3.4c-0.2,0.7-0.5,1.4-0.6,1.7l0,0
					c-0.6-0.6-1.4-1-2.2-1.2l-0.1,0c-0.8-0.3-1.6-0.5-2.4-0.6c0.9-0.8,1.8-1.5,2.7-2.1l0,0c0.8-0.7,1.7-1.1,2.7-1.3
					C22.3,8.5,22.4,8.5,22.5,8.6z"/>
				<path id="Path_106" class="st1" d="M14.1,1.1L14.1,1.1C14.1,1.1,14.2,1.1,14.1,1.1c0.1,0,0.1,0,0.1,0l4.5,7.1L19.2,8l-4.5-7.1
					c-0.2-0.3-0.5-0.4-0.8-0.2c-0.1,0.1-0.2,0.1-0.2,0.2l-4.4,7l0.4,0.3L14.1,1.1z"/>
				<path id="Path_107" class="st1" d="M25.6,15l-2.8-2.1l-0.3,0.4l2.8,2c0.1,0.1,0.2,0.3,0.2,0.5c0,0.2-0.1,0.4-0.3,0.5
					c-1.7,0.9-5.5,2.4-11.7,2.4h0c-3.6,0-7.1-0.8-10.3-2.4c-0.3-0.2-0.4-0.5-0.3-0.9c0-0.1,0.1-0.1,0.1-0.1l2.8-2.1l-0.3-0.4L2.7,15
					l0,0c-0.3,0.3-0.4,0.6-0.3,1c0.1,0.4,0.3,0.7,0.6,0.8c3.2,1.6,6.8,2.4,10.4,2.4h0l0.2,0c0.1,0,0.2,0,0.3,0
					c6.1,0,9.9-1.5,11.6-2.4c0.6-0.3,0.8-1,0.5-1.5C25.8,15.2,25.7,15.1,25.6,15L25.6,15z"/>
			</g>
			<rect id="Rectangle_14" x="13.9" y="0.5" class="st1" width="0.5" height="4.6"/>
		</g>
		<text transform="matrix(1 0 0 1 43.5981 30.4935)" class="st2 st3 st4">UI / UX Design</text>
		<g id="Group_77" transform="translate(74.45 22.871)">
			<path id="Path_108" class="st1" d="M5.6,9.6V6.3c0-0.1,0-0.2-0.1-0.2L2.3,0.5h1.4C4.5,2,5.9,4.4,6.3,5.2C6.7,4.4,8.1,2,9,0.5h1.3
				L6.9,6.1c0,0.1-0.1,0.2-0.1,0.2v3.3L5.6,9.6z"/>
			<path id="Path_109" class="st1" d="M19.4,0.6v9.1h-1.2V0.6H19.4z"/>
			<path id="Path_110" class="st1" d="M27.4,0.6h3.3C33,0.4,35,2.2,35.1,4.5c0,0.2,0,0.3,0,0.5c0.2,2.4-1.6,4.4-3.9,4.6
				c-0.2,0-0.3,0-0.5,0h-3.2V0.6z M28.7,8.6h1.9c2.2,0,3.2-1.5,3.2-3.6c0-1.8-0.9-3.4-3.2-3.4h-1.9V8.6z"/>
			<path id="Path_111" class="st1" d="M41.8,6.9l-1,2.7h-1.2l3.3-9.1h1.5l3.4,9.1h-1.3l-1-2.7H41.8z M45.2,5.9
				c-0.9-2.4-1.4-3.6-1.6-4.3h0c-0.2,0.8-0.8,2.3-1.5,4.3H45.2z"/>
		</g>
		<g id="Group_78" transform="translate(55.104 9.46)">
			<path id="Path_112" class="st1" d="M2.3,0.7h1.2v3.8h4.8V0.7h1.2v9.1H8.3V5.5H3.5v4.2H2.3V0.7z"/>
			<path id="Path_113" class="st1" d="M29,5.2c0,2.5-1.4,4.7-4.3,4.7c-2.7,0-4.2-2.1-4.2-4.7s1.5-4.7,4.3-4.7
				C27.4,0.5,29,2.5,29,5.2z M21.7,5.2c0,2,1,3.7,3,3.7c2.1,0,3-1.7,3-3.7c0-2-1-3.6-3-3.6C22.6,1.6,21.7,3.2,21.7,5.2L21.7,5.2z"/>
			<path id="Path_114" class="st1" d="M41.1,0.7v5.5c0,2.1,1.2,2.7,2.4,2.7c1.4,0,2.4-0.6,2.4-2.7V0.7h1.2v5.4
				c0,2.9-1.7,3.8-3.6,3.8c-1.9,0-3.6-0.9-3.6-3.7V0.7L41.1,0.7z"/>
			<ellipse id="Ellipse_6" class="st1" cx="15.6" cy="5" rx="0.5" ry="0.4"/>
			<ellipse id="Ellipse_7" class="st1" cx="33.7" cy="5" rx="0.5" ry="0.4"/>
		</g>
	</g>
</g>
</svg>
