<svg id="Group_77" data-name="Group 77" xmlns="http://www.w3.org/2000/svg" width="72.278" height="14.651" viewBox="0 0 72.278 14.651">
  <defs>
    <style>
      .cls-1 {
        fill: #7e89a7;
      }
    </style>
  </defs>
  <path id="Path_108" data-name="Path 108" class="cls-1" d="M1858.784,678.748V673.38a.638.638,0,0,0-.105-.4l-5.157-8.883h2.232c1.326,2.379,3.452,6.168,4.126,7.452.631-1.263,2.821-5.073,4.189-7.452h2.084l-5.326,8.925a.712.712,0,0,0-.084.379v5.346Z" transform="translate(-1853.521 -664.097)"/>
  <path id="Path_109" data-name="Path 109" class="cls-1" d="M1923.744,664.1v14.651h-1.937V664.1Z" transform="translate(-1896.648 -664.097)"/>
  <path id="Path_110" data-name="Path 110" class="cls-1" d="M1961.754,664.1h5.22c4.126,0,6.9,2.821,6.9,7.178,0,4.336-2.715,7.472-6.968,7.472h-5.157Zm1.937,13.009h3.073c3.452,0,5.073-2.484,5.073-5.789,0-2.884-1.494-5.557-5.073-5.557h-3.073Z" transform="translate(-1921.876 -664.097)"/>
  <path id="Path_111" data-name="Path 111" class="cls-1" d="M2017.786,674.348l-1.579,4.4h-1.937l5.22-14.651h2.379l5.452,14.651h-2.084l-1.621-4.4Zm5.347-1.663c-1.41-3.852-2.168-5.894-2.484-7.009h-.021c-.358,1.242-1.221,3.726-2.337,7.009Z" transform="translate(-1955.044 -664.097)"/>
</svg>
