<svg xmlns="http://www.w3.org/2000/svg" width="120.026" height="120.286" viewBox="0 0 120.026 120.286">
  <defs>
    <style>
      .cls-1 {
        fill: #32426c;
        stroke: #7e89a7;
      }

      .cls-2 {
        fill: #d58c7d;
      }

      .cls-3 {
        fill: #7e89a7;
      }

      .cls-4 {
        fill: none;
      }
    </style>
  </defs>
  <g id="Group_160" data-name="Group 160" transform="translate(-63.5 338)">
    <g id="Group_154" data-name="Group 154" transform="translate(64 -338)">
      <path id="Path_115" data-name="Path 115" class="cls-1" d="M1592.4,566.232c-.267,0-.534.006-.8.01v.522c.266,0,.532-.01.8-.01a59.06,59.06,0,1,1-36.681,12.826h-.832a59.48,59.48,0,1,0,37.513-13.348Z" transform="translate(-1532.886 -565.472)"/>
    </g>
    <g id="Group_155" data-name="Group 155" transform="translate(85.813 -338)">
      <g id="Group_36" data-name="Group 36" transform="translate(9.229 68.307)">
        <path id="Path_97" data-name="Path 97" class="cls-2" d="M1642.818,689.243a7.98,7.98,0,0,0-1.559-2.3c-.345-.377-.746-.772-1.19-1.172a33.071,33.071,0,0,0-3.645-2.788c-.494-.332-.954-.626-1.355-.876-.8-.5-1.361-.815-1.438-.858l-1.1-.6-.781,1.4.8.438c.012.009.053.034.116.068l.457.3.061-.025c.243.142.606.358,1.045.631.385.241.831.525,1.31.846a31.763,31.763,0,0,1,3.465,2.649c.406.366.769.724,1.08,1.063a6.508,6.508,0,0,1,1.294,1.906,4.551,4.551,0,0,1,.217.487c.015.047.031.1.046.149a12.128,12.128,0,0,1-9.376,3.869,16.317,16.317,0,0,1-2.2-.153l-.139-.019-4.57-7.329-1.361.849,4.968,7.967.884.121a17.77,17.77,0,0,0,2.423.168c6.668,0,10.009-3.65,10.865-4.758.294-.36.2-.7-.02-1.387A5.707,5.707,0,0,0,1642.818,689.243Z" transform="translate(-1591.026 -665.558)"/>
        <path id="Path_98" data-name="Path 98" class="cls-2" d="M1594.744,694.265l-.14.019a16.317,16.317,0,0,1-2.2.153,12.145,12.145,0,0,1-9.376-3.87l.036-.118a6.021,6.021,0,0,1,.259-.586,6.389,6.389,0,0,1,1.264-1.839c.31-.34.673-.7,1.078-1.061a31.543,31.543,0,0,1,3.466-2.649c.478-.321.923-.605,1.309-.845.436-.272.8-.487,1.04-.629l.021.009,1.413-.8-.008-.016-.393-.706-.38-.683-.828.465-.024,0-.248.139c-.006,0-.582.325-1.442.86-.4.25-.862.544-1.355.875a33.056,33.056,0,0,0-3.644,2.788c-.442.4-.843.791-1.189,1.169a7.793,7.793,0,0,0-1.541,2.26,6.588,6.588,0,0,0-.316.725c-.208.646-.3,1-.021,1.34.866,1.12,4.21,4.775,10.878,4.775a17.736,17.736,0,0,0,2.422-.168l.885-.121,4.968-7.967-1.361-.848Z" transform="translate(-1578.811 -665.558)"/>
        <path id="Path_99" data-name="Path 99" class="cls-2" d="M1630.806,659.588l-.226.484a19.7,19.7,0,0,1-4.128,5.7,23.663,23.663,0,0,1-2.224,1.936c-.31.239-.633.479-.94.7l-.362.2a16.7,16.7,0,0,1-6.375,1.76,1.8,1.8,0,0,0-1.1.588l-.1.138c-.11.148-.228.285-.35.42a5.694,5.694,0,0,1-4.213,1.866,5.83,5.83,0,0,1-2.267-.467c-.106-.046-.219-.1-.321-.151a6.53,6.53,0,0,1-2.477-2.2l-.672-1.016-.668,1.019a6.491,6.491,0,0,1-2.482,2.2,2.417,2.417,0,0,1-.286.13,5.635,5.635,0,0,1-2.288.481,5.716,5.716,0,0,1-4.225-1.872c-.117-.129-.234-.265-.325-.387-.018-.027-.039-.054-.081-.106a1.8,1.8,0,0,0-1.243-.651,16.638,16.638,0,0,1-6.312-1.776c-.044-.021-.089-.045-.124-.064l-.16-.088a25,25,0,0,1-3.214-2.667,19.678,19.678,0,0,1-4.162-5.786l-.223-.485-1.457.671.223.485a21.264,21.264,0,0,0,4.494,6.259,26.467,26.467,0,0,0,3.467,2.868l.266.153c.076.04.15.078.191.1a18.094,18.094,0,0,0,6.857,1.929.323.323,0,0,1,.13.04l.038.048c.141.191.292.367.444.537a7.324,7.324,0,0,0,5.416,2.4,7.133,7.133,0,0,0,2.892-.6,3.41,3.41,0,0,0,.426-.193,2.5,2.5,0,0,1,4.83,0c.13.066.27.131.409.192a7.468,7.468,0,0,0,2.9.6,7.3,7.3,0,0,0,5.4-2.392,6.158,6.158,0,0,0,.432-.522l.037-.051c.033-.033.066-.056.063-.056a18.166,18.166,0,0,0,6.93-1.921l.484-.265.05-.031c.349-.25.7-.509,1.032-.767a25.124,25.124,0,0,0,2.37-2.064,21.276,21.276,0,0,0,4.454-6.165l.226-.484Z" transform="translate(-1577.793 -659.5)"/>
        <path id="Path_100" data-name="Path 100" class="cls-2" d="M1612.056,671.664l1.585.249.325-2.063-.351-.29a1.447,1.447,0,0,1-.556-1.118,1.819,1.819,0,0,1,3.6,0,1.486,1.486,0,0,1-.693,1.223l-.384.254.108,1.928,1.6-.09-.058-1.05a3.075,3.075,0,0,0,1.031-2.265,3.412,3.412,0,0,0-6.8,0,3.048,3.048,0,0,0,.791,2.022Z" transform="translate(-1587.437 -661.16)"/>
      </g>
      <path id="Path_101" data-name="Path 101" class="cls-2" d="M1633.244,660.868a3.228,3.228,0,0,1-1.062,2.076,3.268,3.268,0,0,1-3.818.366,1.838,1.838,0,0,0,1.775-1.655c-.339.055-.686.1-1.04.15l-1,.118c-.422.043-.856.087-1.3.123h-.024s0,.008,0,.011a1.462,1.462,0,0,0-.031.45c.008.008.012.02.02.028.039.055.078.106.122.158a1.858,1.858,0,0,0,.141.129c.051.068.1.136.158.2a3.8,3.8,0,0,0,5.355.319,3.762,3.762,0,0,0,1.238-2.419Z" transform="translate(-1582.587 -591.585)"/>
      <path id="Path_102" data-name="Path 102" class="cls-2" d="M1599.125,661.746c-.355-.047-.7-.094-1.041-.15a1.866,1.866,0,0,0,3.256,1.037c.043-.051.083-.1.123-.158.008-.009.011-.02.019-.028a1.453,1.453,0,0,0-.031-.45s0-.008,0-.012h-.024c-.442-.035-.875-.078-1.3-.122" transform="translate(-1574.378 -591.793)"/>
      <path id="Path_103" data-name="Path 103" class="cls-2" d="M1598.982,664.295a3.755,3.755,0,0,1-3.748-3.371l.531-.056a3.228,3.228,0,0,0,1.062,2.076,3.269,3.269,0,0,0,4.6-.275c.072-.085.142-.176.212-.274a.51.51,0,0,1,.066-.086l.377.378c.01-.006,0,.019-.035.051a3.346,3.346,0,0,1-.217.282A3.81,3.81,0,0,1,1598.982,664.295Z" transform="translate(-1573.561 -591.585)"/>
      <g id="Group_37" data-name="Group 37" transform="translate(0 12.797)">
        <path id="Path_104" data-name="Path 104" class="cls-2" d="M1581.793,633.7l.765,1.508.782-.825c.3-.315.557-.568.811-.8a15.707,15.707,0,0,1,6.337-3.492l.161-.047a40.044,40.044,0,0,1,8.834-1.9l1.752-.19-1.294-1.2a92.847,92.847,0,0,0-12.686-9.9c-2.611-1.59-4.742-2.437-6.337-2.519a2.579,2.579,0,0,0-2.268.991c-1.387,1.811-.961,6.23,1.267,13.133C1580.874,631.449,1581.786,633.688,1581.793,633.7Zm-1.868-17.39a.944.944,0,0,1,.823-.367l.092,0c1.322.068,3.2.838,5.583,2.29a85.716,85.716,0,0,1,11.141,8.537,39.744,39.744,0,0,0-7.423,1.752c-.048.012-.1.027-.128.039a17.221,17.221,0,0,0-6.94,3.834l-.052.048c-.332-.859-.948-2.509-1.578-4.468C1579.5,621.967,1578.937,617.6,1579.925,616.315Z" transform="translate(-1568.582 -591.053)"/>
        <path id="Path_105" data-name="Path 105" class="cls-2" d="M1623.147,626.763l-1.3,1.2,1.757.19a39.915,39.915,0,0,1,8.835,1.9l.213.063a15.614,15.614,0,0,1,6.3,3.482c.245.22.509.479.806.792l.782.827.778-1.537c.01-.024,1.13-2.8,2.14-6.1,2.011-6.5,2.33-10.505.976-12.251a2.585,2.585,0,0,0-2.255-.975c-2.12.1-5.219,1.589-9.213,4.41A104.7,104.7,0,0,0,1623.147,626.763Zm20.015-10.456c.94,1.212.477,5.246-1.24,10.8-.7,2.283-1.447,4.3-1.849,5.346l-.05-.045a17.175,17.175,0,0,0-6.91-3.827c-.051-.016-.1-.032-.153-.045a39.381,39.381,0,0,0-7.437-1.756,99.484,99.484,0,0,1,8.362-6.706h0c3.742-2.644,6.557-4.03,8.37-4.12A.952.952,0,0,1,1643.162,616.307Z" transform="translate(-1581.186 -591.053)"/>
        <path id="Path_106" data-name="Path 106" class="cls-2" d="M1609.816,583.441l.007-.013a.237.237,0,0,1,.206-.1.245.245,0,0,1,.218.124l13.776,22.3,1.364-.843-13.762-22.281a1.836,1.836,0,0,0-3.182-.019L1595,604.588l1.368.837Z" transform="translate(-1573.493 -581.701)"/>
        <path id="Path_107" data-name="Path 107" class="cls-2" d="M1636.555,642.426l-8.655-6.506-.962,1.284,8.542,6.412a1.985,1.985,0,0,1-.455,3.124c-5.194,2.861-16.786,7.626-35.954,7.421l-.068,0c-16.646-.518-26.891-4.87-31.516-7.417a1.989,1.989,0,0,1-.484-3.1l8.568-6.435-.963-1.283-8.627,6.484-.055.047a3.589,3.589,0,0,0,.785,5.694c4.721,2.6,15.16,7.047,31.994,7.606l.094.006c.209,0,.424.009.639.016.288.009.576.018.849.018,18.817,0,30.326-4.791,35.513-7.648a3.587,3.587,0,0,0,.754-5.717Z" transform="translate(-1564.859 -597.234)"/>
      </g>
      <rect id="Rectangle_14" data-name="Rectangle 14" class="cls-2" width="1.604" height="14.275" transform="translate(35.657)"/>
    </g>
    <g id="Group_156" data-name="Group 156" transform="translate(64 -338)">
      <path id="Path_115-2" data-name="Path 115" class="cls-3" d="M1592.4,566.232c-.267,0-.534.006-.8.01v.522c.266,0,.532-.01.8-.01a59.06,59.06,0,1,1-36.681,12.826h-.832a59.48,59.48,0,1,0,37.513-13.348Z" transform="translate(-1532.886 -565.472)"/>
    </g>
    <g id="Group_157" data-name="Group 157" transform="translate(64 -338)">
      <path id="Path_115-3" data-name="Path 115" class="cls-4" d="M1592.4,566.232c-.267,0-.534.006-.8.01v.522c.266,0,.532-.01.8-.01a59.06,59.06,0,1,1-36.681,12.826h-.832a59.48,59.48,0,1,0,37.513-13.348Z" transform="translate(-1532.886 -565.472)"/>
    </g>
    <g id="Group_158" data-name="Group 158" transform="translate(85.813 -338)">
      <g id="Group_36-2" data-name="Group 36" transform="translate(9.229 68.307)">
        <path id="Path_97-2" data-name="Path 97" class="cls-2" d="M1642.818,689.243a7.98,7.98,0,0,0-1.559-2.3c-.345-.377-.746-.772-1.19-1.172a33.071,33.071,0,0,0-3.645-2.788c-.494-.332-.954-.626-1.355-.876-.8-.5-1.361-.815-1.438-.858l-1.1-.6-.781,1.4.8.438c.012.009.053.034.116.068l.457.3.061-.025c.243.142.606.358,1.045.631.385.241.831.525,1.31.846a31.763,31.763,0,0,1,3.465,2.649c.406.366.769.724,1.08,1.063a6.508,6.508,0,0,1,1.294,1.906,4.551,4.551,0,0,1,.217.487c.015.047.031.1.046.149a12.128,12.128,0,0,1-9.376,3.869,16.317,16.317,0,0,1-2.2-.153l-.139-.019-4.57-7.329-1.361.849,4.968,7.967.884.121a17.77,17.77,0,0,0,2.423.168c6.668,0,10.009-3.65,10.865-4.758.294-.36.2-.7-.02-1.387A5.707,5.707,0,0,0,1642.818,689.243Z" transform="translate(-1591.026 -665.558)"/>
        <path id="Path_98-2" data-name="Path 98" class="cls-2" d="M1594.744,694.265l-.14.019a16.317,16.317,0,0,1-2.2.153,12.145,12.145,0,0,1-9.376-3.87l.036-.118a6.021,6.021,0,0,1,.259-.586,6.389,6.389,0,0,1,1.264-1.839c.31-.34.673-.7,1.078-1.061a31.543,31.543,0,0,1,3.466-2.649c.478-.321.923-.605,1.309-.845.436-.272.8-.487,1.04-.629l.021.009,1.413-.8-.008-.016-.393-.706-.38-.683-.828.465-.024,0-.248.139c-.006,0-.582.325-1.442.86-.4.25-.862.544-1.355.875a33.056,33.056,0,0,0-3.644,2.788c-.442.4-.843.791-1.189,1.169a7.793,7.793,0,0,0-1.541,2.26,6.588,6.588,0,0,0-.316.725c-.208.646-.3,1-.021,1.34.866,1.12,4.21,4.775,10.878,4.775a17.736,17.736,0,0,0,2.422-.168l.885-.121,4.968-7.967-1.361-.848Z" transform="translate(-1578.811 -665.558)"/>
        <path id="Path_99-2" data-name="Path 99" class="cls-2" d="M1630.806,659.588l-.226.484a19.7,19.7,0,0,1-4.128,5.7,23.663,23.663,0,0,1-2.224,1.936c-.31.239-.633.479-.94.7l-.362.2a16.7,16.7,0,0,1-6.375,1.76,1.8,1.8,0,0,0-1.1.588l-.1.138c-.11.148-.228.285-.35.42a5.694,5.694,0,0,1-4.213,1.866,5.83,5.83,0,0,1-2.267-.467c-.106-.046-.219-.1-.321-.151a6.53,6.53,0,0,1-2.477-2.2l-.672-1.016-.668,1.019a6.491,6.491,0,0,1-2.482,2.2,2.417,2.417,0,0,1-.286.13,5.635,5.635,0,0,1-2.288.481,5.716,5.716,0,0,1-4.225-1.872c-.117-.129-.234-.265-.325-.387-.018-.027-.039-.054-.081-.106a1.8,1.8,0,0,0-1.243-.651,16.638,16.638,0,0,1-6.312-1.776c-.044-.021-.089-.045-.124-.064l-.16-.088a25,25,0,0,1-3.214-2.667,19.678,19.678,0,0,1-4.162-5.786l-.223-.485-1.457.671.223.485a21.264,21.264,0,0,0,4.494,6.259,26.467,26.467,0,0,0,3.467,2.868l.266.153c.076.04.15.078.191.1a18.094,18.094,0,0,0,6.857,1.929.323.323,0,0,1,.13.04l.038.048c.141.191.292.367.444.537a7.324,7.324,0,0,0,5.416,2.4,7.133,7.133,0,0,0,2.892-.6,3.41,3.41,0,0,0,.426-.193,2.5,2.5,0,0,1,4.83,0c.13.066.27.131.409.192a7.468,7.468,0,0,0,2.9.6,7.3,7.3,0,0,0,5.4-2.392,6.158,6.158,0,0,0,.432-.522l.037-.051c.033-.033.066-.056.063-.056a18.166,18.166,0,0,0,6.93-1.921l.484-.265.05-.031c.349-.25.7-.509,1.032-.767a25.124,25.124,0,0,0,2.37-2.064,21.276,21.276,0,0,0,4.454-6.165l.226-.484Z" transform="translate(-1577.793 -659.5)"/>
        <path id="Path_100-2" data-name="Path 100" class="cls-2" d="M1612.056,671.664l1.585.249.325-2.063-.351-.29a1.447,1.447,0,0,1-.556-1.118,1.819,1.819,0,0,1,3.6,0,1.486,1.486,0,0,1-.693,1.223l-.384.254.108,1.928,1.6-.09-.058-1.05a3.075,3.075,0,0,0,1.031-2.265,3.412,3.412,0,0,0-6.8,0,3.048,3.048,0,0,0,.791,2.022Z" transform="translate(-1587.437 -661.16)"/>
      </g>
      <path id="Path_101-2" data-name="Path 101" class="cls-2" d="M1633.244,660.868a3.228,3.228,0,0,1-1.062,2.076,3.268,3.268,0,0,1-3.818.366,1.838,1.838,0,0,0,1.775-1.655c-.339.055-.686.1-1.04.15l-1,.118c-.422.043-.856.087-1.3.123h-.024s0,.008,0,.011a1.462,1.462,0,0,0-.031.45c.008.008.012.02.02.028.039.055.078.106.122.158a1.858,1.858,0,0,0,.141.129c.051.068.1.136.158.2a3.8,3.8,0,0,0,5.355.319,3.762,3.762,0,0,0,1.238-2.419Z" transform="translate(-1582.587 -591.585)"/>
      <path id="Path_102-2" data-name="Path 102" class="cls-2" d="M1599.125,661.746c-.355-.047-.7-.094-1.041-.15a1.866,1.866,0,0,0,3.256,1.037c.043-.051.083-.1.123-.158.008-.009.011-.02.019-.028a1.453,1.453,0,0,0-.031-.45s0-.008,0-.012h-.024c-.442-.035-.875-.078-1.3-.122" transform="translate(-1574.378 -591.793)"/>
      <path id="Path_103-2" data-name="Path 103" class="cls-2" d="M1598.982,664.295a3.755,3.755,0,0,1-3.748-3.371l.531-.056a3.228,3.228,0,0,0,1.062,2.076,3.269,3.269,0,0,0,4.6-.275c.072-.085.142-.176.212-.274a.51.51,0,0,1,.066-.086l.377.378c.01-.006,0,.019-.035.051a3.346,3.346,0,0,1-.217.282A3.81,3.81,0,0,1,1598.982,664.295Z" transform="translate(-1573.561 -591.585)"/>
      <g id="Group_37-2" data-name="Group 37" transform="translate(0 12.797)">
        <path id="Path_104-2" data-name="Path 104" class="cls-2" d="M1581.793,633.7l.765,1.508.782-.825c.3-.315.557-.568.811-.8a15.707,15.707,0,0,1,6.337-3.492l.161-.047a40.044,40.044,0,0,1,8.834-1.9l1.752-.19-1.294-1.2a92.847,92.847,0,0,0-12.686-9.9c-2.611-1.59-4.742-2.437-6.337-2.519a2.579,2.579,0,0,0-2.268.991c-1.387,1.811-.961,6.23,1.267,13.133C1580.874,631.449,1581.786,633.688,1581.793,633.7Zm-1.868-17.39a.944.944,0,0,1,.823-.367l.092,0c1.322.068,3.2.838,5.583,2.29a85.716,85.716,0,0,1,11.141,8.537,39.744,39.744,0,0,0-7.423,1.752c-.048.012-.1.027-.128.039a17.221,17.221,0,0,0-6.94,3.834l-.052.048c-.332-.859-.948-2.509-1.578-4.468C1579.5,621.967,1578.937,617.6,1579.925,616.315Z" transform="translate(-1568.582 -591.053)"/>
        <path id="Path_105-2" data-name="Path 105" class="cls-2" d="M1623.147,626.763l-1.3,1.2,1.757.19a39.915,39.915,0,0,1,8.835,1.9l.213.063a15.614,15.614,0,0,1,6.3,3.482c.245.22.509.479.806.792l.782.827.778-1.537c.01-.024,1.13-2.8,2.14-6.1,2.011-6.5,2.33-10.505.976-12.251a2.585,2.585,0,0,0-2.255-.975c-2.12.1-5.219,1.589-9.213,4.41A104.7,104.7,0,0,0,1623.147,626.763Zm20.015-10.456c.94,1.212.477,5.246-1.24,10.8-.7,2.283-1.447,4.3-1.849,5.346l-.05-.045a17.175,17.175,0,0,0-6.91-3.827c-.051-.016-.1-.032-.153-.045a39.381,39.381,0,0,0-7.437-1.756,99.484,99.484,0,0,1,8.362-6.706h0c3.742-2.644,6.557-4.03,8.37-4.12A.952.952,0,0,1,1643.162,616.307Z" transform="translate(-1581.186 -591.053)"/>
        <path id="Path_106-2" data-name="Path 106" class="cls-2" d="M1609.816,583.441l.007-.013a.237.237,0,0,1,.206-.1.245.245,0,0,1,.218.124l13.776,22.3,1.364-.843-13.762-22.281a1.836,1.836,0,0,0-3.182-.019L1595,604.588l1.368.837Z" transform="translate(-1573.493 -581.701)"/>
        <path id="Path_107-2" data-name="Path 107" class="cls-2" d="M1636.555,642.426l-8.655-6.506-.962,1.284,8.542,6.412a1.985,1.985,0,0,1-.455,3.124c-5.194,2.861-16.786,7.626-35.954,7.421l-.068,0c-16.646-.518-26.891-4.87-31.516-7.417a1.989,1.989,0,0,1-.484-3.1l8.568-6.435-.963-1.283-8.627,6.484-.055.047a3.589,3.589,0,0,0,.785,5.694c4.721,2.6,15.16,7.047,31.994,7.606l.094.006c.209,0,.424.009.639.016.288.009.576.018.849.018,18.817,0,30.326-4.791,35.513-7.648a3.587,3.587,0,0,0,.754-5.717Z" transform="translate(-1564.859 -597.234)"/>
      </g>
      <rect id="Rectangle_14-2" data-name="Rectangle 14" class="cls-2" width="1.604" height="14.275" transform="translate(35.657)"/>
    </g>
    <g id="Group_159" data-name="Group 159" transform="translate(64 -338)">
      <path id="Path_115-4" data-name="Path 115" class="cls-4" d="M1592.4,566.232c-.267,0-.534.006-.8.01v.522c.266,0,.532-.01.8-.01a59.06,59.06,0,1,1-36.681,12.826h-.832a59.48,59.48,0,1,0,37.513-13.348Z" transform="translate(-1532.886 -565.472)"/>
    </g>
  </g>
</svg>
