<svg id="Layer_1" data-name="Layer 1" xmlns="http://www.w3.org/2000/svg" viewBox="0 0 109.48 109.48"><defs><style>.cls-1{fill:#d58c7d;}.cls-2,.cls-3{fill:#fff;}.cls-2{stroke:#fff;stroke-miterlimit:10;}</style></defs><circle class="cls-1" cx="54.74" cy="54.74" r="54.74"/><g id="Group_149" data-name="Group 149"><path id="Path_115" data-name="Path 115" class="cls-2" d="M59.57,10.31H58.9v.44h.67A49.4,49.4,0,1,1,28.89,21.47h-.7A49.76,49.76,0,1,0,59.57,10.31Z" transform="translate(-4.86 -4.99)"/></g><g id="Group_43" data-name="Group 43"><g id="Group_36" data-name="Group 36"><path id="Path_97" data-name="Path 97" class="cls-3" d="M79.07,86.61a6.69,6.69,0,0,0-1.3-1.93c-.29-.31-.63-.64-1-1a28.9,28.9,0,0,0-3-2.33c-.41-.28-.79-.52-1.13-.73-.67-.42-1.14-.68-1.2-.72l-.92-.5-.65,1.17.66.37.1.05.38.25.05,0,.88.53,1.09.71a26.09,26.09,0,0,1,2.9,2.21c.34.31.65.61.91.89a5.78,5.78,0,0,1,1.08,1.6,2.87,2.87,0,0,1,.18.4.65.65,0,0,0,0,.13,10.15,10.15,0,0,1-7.84,3.23,14.1,14.1,0,0,1-1.84-.12l-.12,0-3.82-6.13-1.14.71L67.48,92l.74.11a15.39,15.39,0,0,0,2,.14,11.26,11.26,0,0,0,9.09-4c.24-.3.16-.59,0-1.16A3.32,3.32,0,0,0,79.07,86.61Z" transform="translate(-4.86 -4.99)"/><path id="Path_98" data-name="Path 98" class="cls-3" d="M49.08,90.81H49a12.55,12.55,0,0,1-1.84.13,10.15,10.15,0,0,1-7.84-3.24l0-.1c.07-.16.14-.33.22-.49a5.24,5.24,0,0,1,1.06-1.53,10.86,10.86,0,0,1,.9-.89,26.17,26.17,0,0,1,2.9-2.22l1.09-.7.87-.53h0l1.18-.67h0L47.22,80l-.32-.58-.69.39h0l-.21.12s-.49.27-1.21.72c-.33.21-.72.45-1.13.73a28.9,28.9,0,0,0-3,2.33c-.37.34-.7.66-1,1a6.41,6.41,0,0,0-1.29,1.89,6.65,6.65,0,0,0-.27.61c-.17.54-.25.83,0,1.12a11.25,11.25,0,0,0,9.09,4,15.27,15.27,0,0,0,2-.14l.74-.1L54,85.39l-1.13-.71Z" transform="translate(-4.86 -4.99)"/><path id="Path_99" data-name="Path 99" class="cls-3" d="M80.09,66.87l-.19.41A16.35,16.35,0,0,1,76.45,72a19.1,19.1,0,0,1-1.86,1.62l-.78.59-.31.17a14,14,0,0,1-5.33,1.47,1.52,1.52,0,0,0-.92.49l-.08.11a3.37,3.37,0,0,1-.3.36,4.76,4.76,0,0,1-3.52,1.56A5.07,5.07,0,0,1,61.46,78l-.27-.13a5.48,5.48,0,0,1-2.07-1.84l-.57-.85-.56.85a5.4,5.4,0,0,1-2.07,1.84l-.24.11a4.68,4.68,0,0,1-1.91.4,4.81,4.81,0,0,1-3.54-1.56,3.92,3.92,0,0,1-.27-.33l-.07-.09a1.5,1.5,0,0,0-1-.54,14,14,0,0,1-5.28-1.48l-.1-.06-.13-.07A21.37,21.37,0,0,1,40.65,72a16.31,16.31,0,0,1-3.48-4.84L37,66.79l-1.22.56.19.41A17.7,17.7,0,0,0,39.71,73a20.89,20.89,0,0,0,2.9,2.4l.22.13.16.08a15,15,0,0,0,5.73,1.62.2.2,0,0,1,.11,0l0,0a5.63,5.63,0,0,0,.38.45,6.09,6.09,0,0,0,6.94,1.51,2,2,0,0,0,.36-.17,2.09,2.09,0,0,1,4,0l.34.16a6.34,6.34,0,0,0,2.43.51,6.09,6.09,0,0,0,4.51-2c.13-.14.25-.29.37-.44l0,0a.2.2,0,0,1,0,0,15,15,0,0,0,5.79-1.61l.41-.22,0,0c.29-.21.59-.43.86-.65a21.71,21.71,0,0,0,2-1.72,17.75,17.75,0,0,0,3.72-5.16l.19-.4Z" transform="translate(-4.86 -4.99)"/><path id="Path_100" data-name="Path 100" class="cls-3" d="M56.35,75.58l1.32.21.27-1.72-.29-.25a1.21,1.21,0,0,1-.47-.93,1.53,1.53,0,0,1,3,0,1.25,1.25,0,0,1-.58,1l-.33.21.1,1.62,1.33-.08,0-.88a2.55,2.55,0,0,0,.87-1.89,2.85,2.85,0,0,0-5.69,0,2.58,2.58,0,0,0,.66,1.69Z" transform="translate(-4.86 -4.99)"/></g><path id="Path_101" data-name="Path 101" class="cls-3" d="M70.4,67.61a2.71,2.71,0,0,1-.88,1.74,2.75,2.75,0,0,1-3.2.31,1.56,1.56,0,0,0,1.49-1.39l-.87.13-.84.1L65,68.6h0A1.53,1.53,0,0,0,65,69s0,0,0,0l.11.13a1.14,1.14,0,0,0,.11.11l.14.17a3.17,3.17,0,0,0,4.47.26,3.11,3.11,0,0,0,1-2Z" transform="translate(-4.86 -4.99)"/><path id="Path_102" data-name="Path 102" class="cls-3" d="M48.73,68.17q-.43,0-.87-.12a1.56,1.56,0,0,0,1.72,1.39,1.58,1.58,0,0,0,1-.52l.1-.14s0,0,0,0a1.22,1.22,0,0,0,0-.38h0l-1.09-.1" transform="translate(-4.86 -4.99)"/><path id="Path_103" data-name="Path 103" class="cls-3" d="M49.3,70.48a3.14,3.14,0,0,1-3.14-2.82l.45,0a2.68,2.68,0,0,0,.89,1.74,2.73,2.73,0,0,0,3.84-.23l.18-.23s0,0,.06-.07l.31.32s0,0,0,0a2,2,0,0,1-.18.23A3.19,3.19,0,0,1,49.3,70.48Z" transform="translate(-4.86 -4.99)"/><g id="Group_37" data-name="Group 37"><path id="Path_104" data-name="Path 104" class="cls-3" d="M39.09,56l.64,1.26.65-.69c.25-.26.47-.47.68-.67A13.16,13.16,0,0,1,46.36,53l.13,0a34.07,34.07,0,0,1,7.39-1.59l1.47-.16-1.09-1A77.93,77.93,0,0,0,43.65,42a12.45,12.45,0,0,0-5.3-2.11,2.16,2.16,0,0,0-1.89.83c-1.16,1.52-.81,5.21,1.06,11C38.32,54.16,39.08,56,39.09,56ZM37.52,41.5a.79.79,0,0,1,.69-.31h.08A11.35,11.35,0,0,1,43,43.1a73.28,73.28,0,0,1,9.32,7.14,33,33,0,0,0-6.21,1.47l-.11,0A14.3,14.3,0,0,0,40.16,55l0,0c-.27-.72-.79-2.1-1.32-3.74-1.62-5-2.09-8.68-1.27-9.75Z" transform="translate(-4.86 -4.99)"/><path id="Path_105" data-name="Path 105" class="cls-3" d="M63.13,50.24l-1.09,1,1.47.16A33.24,33.24,0,0,1,70.9,53l.18,0A13.21,13.21,0,0,1,76.35,56c.2.19.42.41.67.67l.66.69L78.33,56s.94-2.34,1.79-5.1c1.68-5.43,1.95-8.78.81-10.24a2.15,2.15,0,0,0-1.88-.82c-1.77.08-4.37,1.33-7.71,3.69A86.2,86.2,0,0,0,63.13,50.24Zm16.74-8.75c.79,1,.4,4.39-1,9-.58,1.91-1.21,3.59-1.54,4.47l0,0a14.46,14.46,0,0,0-5.78-3.2l-.13,0a33.29,33.29,0,0,0-6.22-1.47,85.79,85.79,0,0,1,7-5.61h0c3.13-2.21,5.49-3.37,7-3.44A.79.79,0,0,1,79.87,41.49Z" transform="translate(-4.86 -4.99)"/><path id="Path_106" data-name="Path 106" class="cls-3" d="M58.42,21.83h0a.21.21,0,0,1,.17-.09.21.21,0,0,1,.19.11L70.3,40.49l1.14-.71L59.93,21.15a1.53,1.53,0,0,0-2.09-.58,1.46,1.46,0,0,0-.57.56L46,39.51l1.15.7Z" transform="translate(-4.86 -4.99)"/><path id="Path_107" data-name="Path 107" class="cls-3" d="M88,58.17l-7.24-5.44L80,53.8l7.14,5.36a1.67,1.67,0,0,1,0,2.35,1.88,1.88,0,0,1-.36.27c-4.34,2.39-14,6.37-30.07,6.2h-.06c-13.92-.43-22.49-4.07-26.35-6.2a1.65,1.65,0,0,1-.65-2.26,2,2,0,0,1,.24-.33L37,53.81l-.81-1.08L29,58.16l-.05,0a3,3,0,0,0,0,4.25,3.47,3.47,0,0,0,.69.52c3.94,2.17,12.68,5.89,26.75,6.36h.08l.54,0h.71c15.73,0,25.36-4,29.7-6.4a3,3,0,0,0,1.17-4.07,3.41,3.41,0,0,0-.54-.71Z" transform="translate(-4.86 -4.99)"/></g><rect id="Rectangle_14" data-name="Rectangle 14" class="cls-3" x="53" y="4.68" width="1.34" height="11.94"/></g></svg>