<svg xmlns="http://www.w3.org/2000/svg" width="203.223" height="58.796" viewBox="0 0 203.223 58.796">
  <defs>
    <style>
      .cls-1, .cls-2, .cls-4 {
        fill: #7e89a7;
      }

      .cls-1 {
        font-size: 8px;
      }

      .cls-1, .cls-4 {
        font-family: BwModelicaCyrillicDEMO-Medium, Bw Modelica Cyrillic DEMO;
        font-weight: 500;
        letter-spacing: 0.016em;
      }

      .cls-3 {
        fill: #cb8f80;
      }

      .cls-4 {
        font-size: 20px;
      }
    </style>
  </defs>
  <g id="Group_4292" data-name="Group 4292" transform="translate(-1023.387 -592.704)">
    <text id="UI_UX_Design" data-name="UI / UX Design" class="cls-1" transform="translate(1088 643)"><tspan x="0" y="0">UI / UX Design</tspan></text>
    <path id="Path_112" data-name="Path 112" class="cls-2" d="M1770.2,605.838h1.937v6.126h7.62v-6.126h1.958v14.651h-1.958v-6.862h-7.62v6.862H1770.2Z" transform="translate(-614.605 22.461)"/>
    <path id="Path_113" data-name="Path 113" class="cls-2" d="M1861.768,612.718c0,4.042-2.252,7.62-6.862,7.62-4.315,0-6.714-3.326-6.714-7.536,0-4.189,2.442-7.536,6.883-7.536C1859.2,605.267,1861.768,608.362,1861.768,612.718Zm-11.535.021c0,3.158,1.6,5.936,4.757,5.936,3.389,0,4.757-2.8,4.757-5.915,0-3.157-1.537-5.831-4.757-5.831C1851.685,606.93,1850.233,609.624,1850.233,612.739Z" transform="translate(-663.86 22.822)"/>
    <path id="Path_114" data-name="Path 114" class="cls-2" d="M1933.842,605.838v8.82c0,3.452,1.895,4.4,3.768,4.4,2.189,0,3.747-1.01,3.747-4.4v-8.82h1.958v8.715c0,4.757-2.631,6.125-5.747,6.125-3.052,0-5.7-1.474-5.7-5.978v-8.862Z" transform="translate(-716.704 22.461)"/>
    <ellipse id="Ellipse_6" data-name="Ellipse 6" class="cls-2" cx="0.716" cy="0.716" rx="0.716" ry="0.716" transform="translate(1176.049 634.574)"/>
    <ellipse id="Ellipse_7" data-name="Ellipse 7" class="cls-2" cx="0.716" cy="0.716" rx="0.716" ry="0.716" transform="translate(1204.669 634.574)"/>
    <g id="Group_156" data-name="Group 156">
      <path id="Path_323" data-name="Path 323" class="cls-3" d="M1600.179,639.028l-4.264-3.108-.474.613,4.208,3.063a.924.924,0,0,1,.27.793.942.942,0,0,1-.494.7c-2.559,1.367-8.269,3.643-17.712,3.545l-.033,0c-8.2-.248-13.248-2.327-15.526-3.543a.94.94,0,0,1-.5-.7.925.925,0,0,1,.257-.782l4.221-3.074-.474-.613-4.25,3.1-.027.023a1.671,1.671,0,0,0-.509,1.454,1.7,1.7,0,0,0,.9,1.266c2.326,1.242,7.468,3.366,15.762,3.634l.046,0c.1,0,.209,0,.315.008.142,0,.284.008.418.008,9.27,0,14.94-2.289,17.5-3.654a1.685,1.685,0,0,0,.371-2.731Z" transform="translate(-530.832 -23.126)"/>
      <path id="Path_102" data-name="Path 102" class="cls-3" d="M1599.221,661.76c-.387-.051-.767-.1-1.138-.164a2.03,2.03,0,0,0,.668,1.306,2.05,2.05,0,0,0,2.89-.172c.048-.056.09-.112.134-.172.009-.009.013-.022.021-.03a1.583,1.583,0,0,0-.034-.491s0-.009,0-.013h-.026c-.482-.038-.956-.086-1.417-.133" transform="translate(-554.022 -37.072)"/>
      <path id="Path_322" data-name="Path 322" class="cls-3" d="M1.138.164C.75.112.37.061,0,0A2.03,2.03,0,0,0,.668,1.306a2.05,2.05,0,0,0,2.89-.172c.048-.056.09-.112.134-.172C3.7.952,3.7.939,3.713.931A1.582,1.582,0,0,0,3.679.44s0-.009,0-.013H3.649C3.166.388,2.693.341,2.231.293" transform="matrix(0.978, -0.208, 0.208, 0.978, 1057.001, 624.93)"/>
      <path id="Path_104" data-name="Path 104" class="cls-3" d="M1579.888,624.342l.4.779.4-.426c.154-.163.287-.293.419-.412a8.109,8.109,0,0,1,3.272-1.8l.083-.024a20.674,20.674,0,0,1,4.562-.982l.905-.1-.668-.618a47.961,47.961,0,0,0-6.551-5.11,7.7,7.7,0,0,0-3.272-1.3,1.332,1.332,0,0,0-1.171.512c-.716.935-.5,3.217.654,6.782C1579.414,623.177,1579.885,624.333,1579.888,624.342Zm-.965-8.98a.487.487,0,0,1,.425-.189h.047a6.99,6.99,0,0,1,2.883,1.182,44.272,44.272,0,0,1,5.753,4.408,20.519,20.519,0,0,0-3.833.9.683.683,0,0,0-.066.02,8.892,8.892,0,0,0-3.584,1.98l-.027.025c-.171-.444-.489-1.3-.815-2.307C1578.707,618.281,1578.413,616.028,1578.924,615.362Z" transform="translate(-539.089 -10.237)"/>
      <path id="Path_105" data-name="Path 105" class="cls-3" d="M1622.518,620.757l-.671.618.907.1a20.614,20.614,0,0,1,4.562.981l.11.033a8.063,8.063,0,0,1,3.251,1.8c.127.113.263.247.416.409l.4.427.4-.794c.005-.012.583-1.445,1.1-3.151,1.039-3.355,1.2-5.425.5-6.326a1.335,1.335,0,0,0-1.165-.5c-1.095.054-2.7.821-4.757,2.277A54.049,54.049,0,0,0,1622.518,620.757Zm10.335-5.4c.486.626.246,2.709-.64,5.575-.361,1.179-.747,2.222-.955,2.761l-.026-.023a8.867,8.867,0,0,0-3.568-1.976c-.026-.009-.052-.017-.079-.023a20.329,20.329,0,0,0-3.841-.907,51.373,51.373,0,0,1,4.318-3.463h0c1.932-1.365,3.386-2.081,4.322-2.127A.492.492,0,0,1,1632.854,615.358Z" transform="translate(-568.59 -10.386)"/>
      <path id="Path_324" data-name="Path 324" class="cls-3" d="M14.063,16.727A20.732,20.732,0,0,1,3.869,14.283C1.052,12.658-.5,10.467-.5,8.113a.5.5,0,0,1,.5-.5.5.5,0,0,1,.5.5c0,1.981,1.374,3.865,3.869,5.3a19.725,19.725,0,0,0,9.694,2.309,19.725,19.725,0,0,0,9.694-2.309c2.495-1.439,3.869-3.323,3.869-5.3a.5.5,0,1,1,1,0c0,2.353-1.552,4.545-4.369,6.17A20.732,20.732,0,0,1,14.063,16.727Z" transform="translate(1038.765 614.175)"/>
      <path id="Union_2" data-name="Union 2" class="cls-3" d="M6148.442,178.857l3.755-6.417h3.246l3.766,6.417Zm12.018-.178-.291-.04-.073-.116-2.484-3.986-.384-.613q-.5-.8-1-1.6a9.839,9.839,0,0,0,3.715-.415,9.627,9.627,0,0,0,2.035-.906l.222.124.128.074a.039.039,0,0,1,.012,0s.32.18.8.478c.225.139.483.3.76.491a18.66,18.66,0,0,1,2.026,1.549c.232.209.451.423.647.636a4.118,4.118,0,0,1,.808,1.187,3.158,3.158,0,0,1,.152.347,1.916,1.916,0,0,1,.086.344,7.251,7.251,0,0,1-5.841,2.545A9.872,9.872,0,0,1,6160.46,178.679ZM6140,176.225a1.918,1.918,0,0,1,.085-.344,3.17,3.17,0,0,1,.153-.347,4.111,4.111,0,0,1,.807-1.187c.2-.214.417-.427.647-.636a18.808,18.808,0,0,1,2.026-1.549c.278-.186.535-.351.76-.491.481-.3.8-.478.8-.478l.013,0,.128-.073.221-.124a16.863,16.863,0,0,0,5.749,1.32l-1,1.6-.384.613-2.484,3.986-.073.116-.291.04a9.877,9.877,0,0,1-1.319.091A7.248,7.248,0,0,1,6140,176.225Z" transform="translate(-5101.234 460.749)"/>
      <path id="Path_327" data-name="Path 327" class="cls-3" d="M12.042,0,6.5,4.263" transform="translate(1039.915 601.826)"/>
      <path id="Path_327_-_Outline" data-name="Path 327 - Outline" class="cls-3" d="M6.5,4.763a.5.5,0,0,1-.305-.9L11.738-.4a.5.5,0,0,1,.7.091.5.5,0,0,1-.091.7L6.8,4.66A.5.5,0,0,1,6.5,4.763Z" transform="translate(1039.915 601.826)"/>
      <path id="Union_1" data-name="Union 1" class="cls-3" d="M6151.448,224.01a31.825,31.825,0,0,1-6.8-6.557,32.294,32.294,0,0,1-4.651-8.4l.937-.35a31.337,31.337,0,0,0,4.507,8.138,30.9,30.9,0,0,0,6.583,6.35,30.477,30.477,0,0,0,48.086-24.9,30.832,30.832,0,0,0-.842-7.164,30.492,30.492,0,0,0-2.382-6.536,30.029,30.029,0,0,0-8.177-10.087l0,0c-2.888-2.229-5.2-2.929-7.5-2.271s-10.15,6.508-13.6,9.241l-.621-.784c2.78-2.2,11.31-8.665,13.941-9.419,2.542-.728,5.038-.053,8.054,2.188l.006-.008a31,31,0,0,1,8.792,10.687,31.5,31.5,0,0,1-28.17,45.649A31.176,31.176,0,0,1,6151.448,224.01Z" transform="translate(-5116.613 421.704)"/>
    </g>
    <text id="J_i_u_y_a_n" data-name="J i u y a n" class="cls-4" transform="translate(1098 618)"><tspan x="0" y="0">J I U Y A N</tspan></text>
  </g>
</svg>
