<svg xmlns="http://www.w3.org/2000/svg" width="190.914" height="62.637" viewBox="0 0 190.914 62.637">
  <defs>
    <style>
      .cls-1 {
        fill: #d58c7d;
      }

      .cls-2 {
        fill: #898989;
        font-size: 6px;
        font-family: AcuminPro-Regular, Acumin Pro;
        letter-spacing: 0.075em;
      }

      .cls-3, .cls-4 {
        fill: #7e89a7;
      }

      .cls-4 {
        stroke: #7e89a7;
      }
    </style>
  </defs>
  <g id="Group_151" data-name="Group 151" transform="translate(-1021.697 -474.692)">
    <g id="Group_76" data-name="Group 76" transform="translate(1033.977 474.692)">
      <g id="Group_36" data-name="Group 36" transform="translate(4.766 36.037)">
        <path id="Path_97" data-name="Path 97" class="cls-1" d="M1633.708,685.085a4.122,4.122,0,0,0-.805-1.188c-.178-.195-.385-.4-.615-.6a17.076,17.076,0,0,0-1.882-1.44c-.255-.171-.493-.323-.7-.452-.414-.258-.7-.421-.742-.443l-.57-.311-.4.725.411.226c.006,0,.027.017.06.035l.236.157.031-.013c.125.073.313.185.54.326.2.125.429.271.676.437a16.392,16.392,0,0,1,1.79,1.368c.21.189.4.374.557.549a3.361,3.361,0,0,1,.668.984,2.355,2.355,0,0,1,.112.251c.008.024.016.051.024.077a6.263,6.263,0,0,1-4.842,2,8.423,8.423,0,0,1-1.138-.079l-.072-.01-2.36-3.785-.7.438,2.565,4.114.457.062a9.173,9.173,0,0,0,1.251.087,6.936,6.936,0,0,0,5.611-2.457c.152-.186.1-.36-.01-.716A2.953,2.953,0,0,0,1633.708,685.085Z" transform="translate(-1606.963 -672.855)"/>
        <path id="Path_98" data-name="Path 98" class="cls-1" d="M1588.265,687.678l-.072.01a8.42,8.42,0,0,1-1.138.079,6.272,6.272,0,0,1-4.842-2l.018-.061a3.1,3.1,0,0,1,.134-.3,3.3,3.3,0,0,1,.653-.949c.16-.176.347-.36.557-.548a16.286,16.286,0,0,1,1.79-1.368c.247-.166.476-.312.676-.437.225-.14.412-.251.537-.325l.011,0,.73-.412,0-.008-.2-.364-.2-.353-.428.24-.012,0-.128.072s-.3.168-.745.444c-.207.129-.445.281-.7.452a17.066,17.066,0,0,0-1.882,1.44c-.228.2-.435.408-.614.6a4.023,4.023,0,0,0-.8,1.167,3.431,3.431,0,0,0-.163.374c-.107.334-.156.516-.011.692a6.942,6.942,0,0,0,5.617,2.466,9.157,9.157,0,0,0,1.251-.087l.457-.062,2.565-4.114-.7-.438Z" transform="translate(-1580.037 -672.855)"/>
        <path id="Path_99" data-name="Path 99" class="cls-1" d="M1605.168,659.545l-.117.25a10.172,10.172,0,0,1-2.132,2.946,12.223,12.223,0,0,1-1.149,1c-.16.123-.327.247-.486.362l-.187.1a8.626,8.626,0,0,1-3.292.909.931.931,0,0,0-.569.3l-.054.071c-.057.077-.118.147-.181.217a2.94,2.94,0,0,1-2.175.963,3.011,3.011,0,0,1-1.171-.241c-.055-.024-.113-.051-.166-.078a3.37,3.37,0,0,1-1.279-1.135l-.347-.525-.345.526a3.352,3.352,0,0,1-1.281,1.137,1.256,1.256,0,0,1-.148.067,2.91,2.91,0,0,1-1.182.248,2.952,2.952,0,0,1-2.182-.966c-.06-.067-.121-.137-.168-.2-.009-.014-.02-.028-.042-.055a.927.927,0,0,0-.642-.336,8.593,8.593,0,0,1-3.259-.917c-.023-.011-.046-.023-.064-.033l-.083-.046a12.907,12.907,0,0,1-1.659-1.377,10.158,10.158,0,0,1-2.149-2.988l-.115-.251-.752.346.115.251a10.981,10.981,0,0,0,2.321,3.232,13.666,13.666,0,0,0,1.79,1.481l.137.079c.039.021.077.041.1.05a9.344,9.344,0,0,0,3.541,1,.166.166,0,0,1,.067.021l.02.025c.073.1.151.19.229.277a3.782,3.782,0,0,0,2.8,1.24,3.684,3.684,0,0,0,1.493-.31,1.783,1.783,0,0,0,.22-.1,1.288,1.288,0,0,1,2.494,0c.068.034.14.068.211.1a3.858,3.858,0,0,0,1.5.309,3.771,3.771,0,0,0,2.789-1.235,3.2,3.2,0,0,0,.223-.27l.019-.026c.017-.017.034-.029.033-.029a9.377,9.377,0,0,0,3.578-.992l.25-.137.026-.016c.18-.129.36-.263.533-.4a12.962,12.962,0,0,0,1.224-1.066,10.982,10.982,0,0,0,2.3-3.184l.117-.25Z" transform="translate(-1577.793 -659.5)"/>
        <path id="Path_100" data-name="Path 100" class="cls-1" d="M1611.765,668.584l.818.129.168-1.065-.181-.15a.747.747,0,0,1-.287-.577.939.939,0,0,1,1.857,0,.767.767,0,0,1-.358.632l-.2.131.056,1,.826-.046-.03-.542a1.588,1.588,0,0,0,.532-1.17,1.762,1.762,0,0,0-3.513,0,1.574,1.574,0,0,0,.408,1.044Z" transform="translate(-1599.052 -663.16)"/>
      </g>
      <path id="Path_101" data-name="Path 101" class="cls-1" d="M1630.1,660.868a1.667,1.667,0,0,1-.548,1.072,1.687,1.687,0,0,1-1.971.189.949.949,0,0,0,.917-.855c-.175.028-.354.053-.537.077l-.517.061c-.218.022-.442.045-.67.063h-.012s0,0,0,.006a.754.754,0,0,0-.016.232s.006.01.01.014c.02.028.041.055.063.081a.946.946,0,0,0,.073.067c.026.035.052.07.082.105a1.964,1.964,0,0,0,2.765.165,1.943,1.943,0,0,0,.639-1.249Z" transform="translate(-1603.939 -624.536)"/>
      <path id="Path_102" data-name="Path 102" class="cls-1" d="M1598.622,661.673c-.183-.024-.363-.049-.538-.077a.959.959,0,0,0,.316.617.969.969,0,0,0,1.366-.081c.022-.027.043-.053.063-.081,0,0,.006-.01.01-.014a.749.749,0,0,0-.016-.232s0,0,0-.006h-.012c-.228-.018-.452-.041-.67-.063" transform="translate(-1585.842 -625.002)"/>
      <path id="Path_103" data-name="Path 103" class="cls-1" d="M1597.169,662.638a1.939,1.939,0,0,1-1.935-1.741l.275-.029a1.667,1.667,0,0,0,.548,1.072,1.688,1.688,0,0,0,2.376-.142c.037-.044.073-.091.109-.142a.271.271,0,0,1,.034-.044l.2.2c.005,0,0,.01-.018.026a1.748,1.748,0,0,1-.112.146A1.967,1.967,0,0,1,1597.169,662.638Z" transform="translate(-1584.042 -624.536)"/>
      <g id="Group_37" data-name="Group 37" transform="translate(0 6.608)">
        <path id="Path_104" data-name="Path 104" class="cls-1" d="M1579.888,624.342l.4.779.4-.426c.154-.163.287-.293.419-.412a8.109,8.109,0,0,1,3.272-1.8l.083-.024a20.674,20.674,0,0,1,4.562-.982l.905-.1-.668-.618a47.961,47.961,0,0,0-6.551-5.11,7.7,7.7,0,0,0-3.272-1.3,1.332,1.332,0,0,0-1.171.512c-.716.935-.5,3.217.654,6.782C1579.414,623.177,1579.885,624.333,1579.888,624.342Zm-.965-8.98a.487.487,0,0,1,.425-.189h.047a6.99,6.99,0,0,1,2.883,1.182,44.272,44.272,0,0,1,5.753,4.408,20.519,20.519,0,0,0-3.833.9.683.683,0,0,0-.066.02,8.892,8.892,0,0,0-3.584,1.98l-.027.025c-.171-.444-.489-1.3-.815-2.307C1578.707,618.281,1578.413,616.028,1578.924,615.362Z" transform="translate(-1573.066 -602.318)"/>
        <path id="Path_105" data-name="Path 105" class="cls-1" d="M1622.518,620.757l-.671.618.907.1a20.614,20.614,0,0,1,4.562.981l.11.033a8.063,8.063,0,0,1,3.251,1.8c.127.113.263.247.416.409l.4.427.4-.794c.005-.012.583-1.445,1.1-3.151,1.039-3.355,1.2-5.425.5-6.326a1.335,1.335,0,0,0-1.165-.5c-1.095.054-2.7.821-4.757,2.277A54.049,54.049,0,0,0,1622.518,620.757Zm10.335-5.4c.486.626.246,2.709-.64,5.575-.361,1.179-.747,2.222-.955,2.761l-.026-.023a8.867,8.867,0,0,0-3.568-1.976c-.026-.009-.052-.017-.079-.023a20.329,20.329,0,0,0-3.841-.907,51.373,51.373,0,0,1,4.318-3.463h0c1.932-1.365,3.386-2.081,4.322-2.127A.492.492,0,0,1,1632.854,615.358Z" transform="translate(-1600.85 -602.317)"/>
        <path id="Path_106" data-name="Path 106" class="cls-1" d="M1602.649,582.6l0-.007a.122.122,0,0,1,.106-.053.127.127,0,0,1,.113.064l7.114,11.517.7-.435-7.107-11.505a.948.948,0,0,0-1.643-.01L1595,593.52l.706.432Z" transform="translate(-1583.892 -581.701)"/>
        <path id="Path_107" data-name="Path 107" class="cls-1" d="M1601.881,639.28l-4.469-3.36-.5.663,4.411,3.311a1.025,1.025,0,0,1-.235,1.613c-2.682,1.477-8.668,3.938-18.566,3.832l-.035,0c-8.6-.268-13.886-2.515-16.274-3.83a1.027,1.027,0,0,1-.25-1.6l4.425-3.323-.5-.662-4.455,3.348-.028.024a1.853,1.853,0,0,0,.405,2.94c2.438,1.343,7.828,3.639,16.521,3.928l.048,0c.108,0,.219,0,.33.008.149,0,.3.009.438.009,9.717,0,15.66-2.474,18.339-3.949a1.852,1.852,0,0,0,.389-2.952Z" transform="translate(-1564.859 -615.943)"/>
      </g>
      <rect id="Rectangle_14" data-name="Rectangle 14" class="cls-1" width="0.828" height="7.372" transform="translate(18.412 0)"/>
    </g>
    <text id="UI_UX_Design" data-name="UI / UX Design" class="cls-2" transform="translate(1087.721 523.625)"><tspan x="0" y="0">UI / UX Design</tspan></text>
    <g id="Group_77" data-name="Group 77" transform="translate(1140.332 511.423)">
      <path id="Path_108" data-name="Path 108" class="cls-3" d="M1858.784,678.748V673.38a.638.638,0,0,0-.105-.4l-5.157-8.883h2.232c1.326,2.379,3.452,6.168,4.126,7.452.631-1.263,2.821-5.073,4.189-7.452h2.084l-5.326,8.925a.712.712,0,0,0-.084.379v5.346Z" transform="translate(-1853.521 -664.097)"/>
      <path id="Path_109" data-name="Path 109" class="cls-3" d="M1923.744,664.1v14.651h-1.937V664.1Z" transform="translate(-1896.648 -664.097)"/>
      <path id="Path_110" data-name="Path 110" class="cls-3" d="M1961.754,664.1h5.22c4.126,0,6.9,2.821,6.9,7.178,0,4.336-2.715,7.472-6.968,7.472h-5.157Zm1.937,13.009h3.073c3.452,0,5.073-2.484,5.073-5.789,0-2.884-1.494-5.557-5.073-5.557h-3.073Z" transform="translate(-1921.876 -664.097)"/>
      <path id="Path_111" data-name="Path 111" class="cls-3" d="M2017.786,674.348l-1.579,4.4h-1.937l5.22-14.651h2.379l5.452,14.651h-2.084l-1.621-4.4Zm5.347-1.663c-1.41-3.852-2.168-5.894-2.484-7.009h-.021c-.358,1.242-1.221,3.726-2.337,7.009Z" transform="translate(-1955.044 -664.097)"/>
    </g>
    <g id="Group_78" data-name="Group 78" transform="translate(1109.634 489.748)">
      <path id="Path_112" data-name="Path 112" class="cls-3" d="M1770.2,605.838h1.937v6.126h7.62v-6.126h1.958v14.651h-1.958v-6.862h-7.62v6.862H1770.2Z" transform="translate(-1770.202 -605.628)"/>
      <path id="Path_113" data-name="Path 113" class="cls-3" d="M1861.768,612.718c0,4.042-2.252,7.62-6.862,7.62-4.315,0-6.714-3.326-6.714-7.536,0-4.189,2.442-7.536,6.883-7.536C1859.2,605.267,1861.768,608.362,1861.768,612.718Zm-11.535.021c0,3.158,1.6,5.936,4.757,5.936,3.389,0,4.757-2.8,4.757-5.915,0-3.157-1.537-5.831-4.757-5.831C1851.685,606.93,1850.233,609.624,1850.233,612.739Z" transform="translate(-1819.457 -605.267)"/>
      <path id="Path_114" data-name="Path 114" class="cls-3" d="M1933.842,605.838v8.82c0,3.452,1.895,4.4,3.768,4.4,2.189,0,3.747-1.01,3.747-4.4v-8.82h1.958v8.715c0,4.757-2.631,6.125-5.747,6.125-3.052,0-5.7-1.474-5.7-5.978v-8.862Z" transform="translate(-1872.3 -605.628)"/>
      <ellipse id="Ellipse_6" data-name="Ellipse 6" class="cls-3" cx="0.716" cy="0.716" rx="0.716" ry="0.716" transform="translate(20.452 6.486)"/>
      <ellipse id="Ellipse_7" data-name="Ellipse 7" class="cls-3" cx="0.716" cy="0.716" rx="0.716" ry="0.716" transform="translate(49.072 6.486)"/>
    </g>
    <path id="Path_218" data-name="Path 218" class="cls-4" d="M1563.617,566.232c-.138,0-.276,0-.413.005v.269c.137,0,.275-.005.413-.005a30.5,30.5,0,1,1-18.941,6.623h-.429a30.715,30.715,0,1,0,19.371-6.892Z" transform="translate(-510.689 -90.866)"/>
  </g>
</svg>
