<svg xmlns="http://www.w3.org/2000/svg" width="21.63" height="21.63" viewBox="0 0 21.63 21.63">
  <defs>
    <style>
      .cls-1 {
        fill: #a4adc6;
        fill-rule: evenodd;
      }
    </style>
  </defs>
  <path id="Path_3" data-name="Path 3" class="cls-1" d="M10.815,1.923a33.161,33.161,0,0,1,4.326.12,5.574,5.574,0,0,1,2.043.36,4.22,4.22,0,0,1,2.043,2.043,5.574,5.574,0,0,1,.36,2.043c0,1.082.12,1.442.12,4.326a33.161,33.161,0,0,1-.12,4.326,5.574,5.574,0,0,1-.361,2.043,4.22,4.22,0,0,1-2.043,2.043,5.574,5.574,0,0,1-2.043.36c-1.082,0-1.442.12-4.326.12a33.16,33.16,0,0,1-4.326-.12,5.574,5.574,0,0,1-2.043-.361A4.22,4.22,0,0,1,2.4,17.184a5.574,5.574,0,0,1-.36-2.043c0-1.082-.12-1.442-.12-4.326a33.161,33.161,0,0,1,.12-4.326A5.574,5.574,0,0,1,2.4,4.446a4.316,4.316,0,0,1,.841-1.2,2.032,2.032,0,0,1,1.2-.841,5.574,5.574,0,0,1,2.043-.36,33.161,33.161,0,0,1,4.326-.12m0-1.923A35.506,35.506,0,0,0,6.369.12,7.419,7.419,0,0,0,3.725.6,4.7,4.7,0,0,0,1.8,1.8,4.7,4.7,0,0,0,.6,3.725,5.475,5.475,0,0,0,.12,6.369,35.506,35.506,0,0,0,0,10.815a35.506,35.506,0,0,0,.12,4.446A7.419,7.419,0,0,0,.6,17.9a4.7,4.7,0,0,0,1.2,1.923,4.7,4.7,0,0,0,1.923,1.2,7.419,7.419,0,0,0,2.644.481,35.506,35.506,0,0,0,4.446.12,35.506,35.506,0,0,0,4.446-.12,7.419,7.419,0,0,0,2.644-.481A5.042,5.042,0,0,0,21.029,17.9a7.419,7.419,0,0,0,.481-2.644c0-1.2.12-1.562.12-4.446a35.506,35.506,0,0,0-.12-4.446,7.419,7.419,0,0,0-.481-2.644,4.7,4.7,0,0,0-1.2-1.923A4.7,4.7,0,0,0,17.9.6,7.419,7.419,0,0,0,15.261.12,35.506,35.506,0,0,0,10.815,0m0,5.287a5.439,5.439,0,0,0-5.528,5.528,5.528,5.528,0,1,0,5.528-5.528m0,9.133a3.541,3.541,0,0,1-3.6-3.6,3.541,3.541,0,0,1,3.6-3.6,3.541,3.541,0,0,1,3.6,3.6,3.541,3.541,0,0,1-3.6,3.6M16.583,3.725A1.322,1.322,0,1,0,17.9,5.047a1.334,1.334,0,0,0-1.322-1.322"/>
</svg>
