<svg xmlns="http://www.w3.org/2000/svg" width="21.63" height="17.544" viewBox="0 0 21.63 17.544">
  <defs>
    <style>
      .cls-1 {
        fill: #d58c7d;
        fill-rule: evenodd;
      }
    </style>
  </defs>
  <path id="Path_2" data-name="Path 2" class="cls-1" d="M44.849,19.544A12.505,12.505,0,0,0,57.467,6.927v-.6A9.768,9.768,0,0,0,59.63,4.043a9.975,9.975,0,0,1-2.523.721,4.675,4.675,0,0,0,1.923-2.4,11.022,11.022,0,0,1-2.764,1.081A4.292,4.292,0,0,0,53.021,2a4.515,4.515,0,0,0-4.446,4.446,2.343,2.343,0,0,0,.12.961,12.424,12.424,0,0,1-9.133-4.686A4.6,4.6,0,0,0,38.961,5a4.774,4.774,0,0,0,1.923,3.725,4.051,4.051,0,0,1-2.043-.6h0a4.392,4.392,0,0,0,3.605,4.326,3.7,3.7,0,0,1-1.2.12,2.045,2.045,0,0,1-.841-.12,4.552,4.552,0,0,0,4.206,3.124A9.073,9.073,0,0,1,39.081,17.5,3.327,3.327,0,0,1,38,17.381a11.342,11.342,0,0,0,6.85,2.163" transform="translate(-38 -2)"/>
</svg>
